<svg version="1.1" id="Layer_1" xmlns="http://www.w3.org/2000/svg" xmlns:xlink="http://www.w3.org/1999/xlink" x="0px" y="0px"
	 width="100%" viewBox="0 0 142 142" enable-background="new 0 0 142 142" xml:space="preserve">
<path fill="#0A0A0A" opacity="1.000000" stroke="none" 
	d="
M71.000000,0.999999 
	C84.354225,1.000000 97.708458,1.000000 111.681976,1.305769 
	C118.626534,5.632554 125.192253,9.405442 127.762894,17.095478 
	C125.376617,17.063957 123.223770,17.231239 121.335548,16.603067 
	C118.293266,15.590957 117.850739,16.543095 116.793037,19.468859 
	C114.438110,25.982941 118.514404,29.069700 122.301506,32.514549 
	C126.277138,36.130875 128.739517,35.432304 131.228027,30.250824 
	C131.380783,29.932781 131.914780,29.797840 132.546509,29.407883 
	C132.637421,30.998421 132.710037,32.269035 132.782654,33.539646 
	C133.188644,33.539101 133.594635,33.538555 134.000626,33.538010 
	C134.000626,30.357847 134.000626,27.177685 134.309204,24.175468 
	C136.019409,26.966084 137.421051,29.578754 138.819611,32.619347 
	C138.957779,35.043167 139.099030,37.039066 139.173859,39.029118 
	C139.107422,39.023273 138.978348,38.989677 138.625732,38.984047 
	C136.082916,38.137341 134.319000,37.851440 131.639450,38.772266 
	C128.431000,39.874847 124.373825,38.507687 120.684219,38.210064 
	C119.666199,38.127945 118.205818,37.595924 117.729622,38.064407 
	C116.934258,38.846893 116.050797,40.757351 116.450539,41.344322 
	C119.622086,46.001247 117.018280,48.068382 113.218102,50.251537 
	C109.867622,52.176350 110.366615,56.459236 113.793053,58.139019 
	C117.708107,60.058342 121.582802,62.059990 126.401871,64.493996 
	C124.056885,66.145210 122.026939,67.574585 119.724518,68.995163 
	C119.270416,68.980003 119.088791,68.973656 118.952194,68.585800 
	C116.477730,64.074524 113.683861,66.847023 110.625648,67.884369 
	C109.862358,67.982353 109.432365,68.080727 108.708046,68.146683 
	C107.974388,68.791992 107.535049,69.469734 106.833633,70.252258 
	C106.387222,70.394806 106.202881,70.432556 105.647034,70.256073 
	C103.072289,69.691391 100.467209,69.937561 98.789131,68.807350 
	C97.370201,67.851685 97.025070,65.301712 96.178116,63.397556 
	C96.930862,63.155640 97.797722,62.877048 98.771790,62.564007 
	C97.686478,61.986427 96.778458,61.503197 94.723236,60.409443 
	C97.920647,60.079178 99.715385,59.893799 102.266983,59.630238 
	C99.037857,59.011517 96.620140,58.548267 94.529388,58.078011 
	C95.582558,57.745113 96.308784,57.419220 97.379776,57.061146 
	C98.089485,56.820503 98.454422,56.612041 98.819359,56.403580 
	C98.212181,56.322803 97.604996,56.242020 96.693634,56.093105 
	C95.546417,55.772385 94.703384,55.519798 93.367447,55.118954 
	C92.771507,55.298016 92.668472,55.625328 92.971237,55.859062 
	C93.555870,55.265892 93.734703,54.766304 93.973457,53.951530 
	C94.566521,53.217110 95.608627,52.692329 95.547256,52.396358 
	C95.233215,50.881817 94.634697,49.426262 94.046196,47.670086 
	C93.599686,46.925423 93.242607,46.460754 93.021774,45.640804 
	C94.667961,44.750156 96.177910,44.214794 97.687851,43.679432 
	C97.629311,43.436924 97.570770,43.194416 97.512230,42.951908 
	C95.896614,42.951908 94.280998,42.951908 92.665382,42.951908 
	C92.971313,42.560894 93.277237,42.169876 93.583168,41.778862 
	C93.135658,41.050739 92.772697,39.773632 92.226021,39.689442 
	C89.848045,39.323219 87.416565,39.304359 84.692688,39.123711 
	C83.780029,39.651993 83.179207,40.215851 82.294815,40.747437 
	C81.291481,40.932159 80.571709,41.149147 79.436890,41.447964 
	C75.347267,42.993660 71.672714,44.457531 67.648880,45.931511 
	C65.602829,47.032932 63.906040,48.124249 61.968864,49.011055 
	C61.560585,48.679718 61.392700,48.552891 61.473637,48.133484 
	C63.111526,45.894207 64.500595,43.947514 66.039696,41.790558 
	C67.798294,41.790558 69.679459,41.790558 71.560616,41.790558 
	C71.597000,41.644367 71.633377,41.498173 71.669754,41.351982 
	C70.904625,41.124813 70.139503,40.897640 68.838135,40.511257 
	C70.157585,40.137814 70.904434,39.926434 71.998604,39.616753 
	C70.416801,38.365990 69.007782,37.251846 67.668289,36.192680 
	C68.465828,36.057709 69.549828,35.874260 70.554245,35.704277 
	C67.168388,31.539387 63.946815,34.817135 61.115276,36.250488 
	C60.130142,36.749176 60.514008,39.952267 60.258736,42.033512 
	C55.548092,41.380714 52.020309,42.874847 50.484711,48.248329 
	C50.183178,48.794174 50.138721,49.049133 49.780617,49.161644 
	C46.231709,48.514183 47.540661,51.560768 46.623138,52.832230 
	C44.708771,55.485092 46.426182,56.156830 48.819199,56.392288 
	C47.406364,57.352283 46.058395,57.966343 43.870213,58.963154 
	C46.891121,58.963154 48.951664,58.963154 51.196251,59.221245 
	C51.273422,59.661648 51.166550,59.843960 50.639336,60.001556 
	C47.767941,60.200893 44.293362,58.908791 44.904766,63.987125 
	C46.646309,64.259102 48.496712,64.548088 50.878227,64.900742 
	C52.076786,64.788071 52.744232,64.611725 53.483467,64.422104 
	C53.555256,64.408829 53.632099,64.284683 53.680481,64.281967 
	C53.728859,64.279259 53.738346,64.271034 53.698891,64.415947 
	C53.739616,64.740570 53.794273,64.927719 53.619240,65.295563 
	C52.944302,66.025230 52.473522,66.581635 51.675102,67.135231 
	C50.117939,69.216049 47.417892,71.888123 47.966885,73.260071 
	C49.088966,76.064201 51.957970,78.169281 54.042301,80.489685 
	C52.706806,80.988708 51.427948,81.466560 49.800846,82.093208 
	C45.183510,84.362976 43.748894,89.956635 45.459885,96.399956 
	C43.682720,98.735725 42.188690,100.699364 40.512428,102.902512 
	C36.560509,101.054642 38.354122,98.103149 38.805885,95.108414 
	C39.129211,92.965111 38.402462,90.553574 37.606506,88.466812 
	C37.483673,88.144791 34.476788,89.004860 32.789143,89.166779 
	C31.785324,89.263084 30.753122,89.063515 29.733681,88.996971 
	C30.062634,87.987236 30.378500,86.972984 30.724220,85.969025 
	C31.070507,84.963409 31.446596,83.968071 31.809622,82.968216 
	C30.581406,83.066338 29.296535,82.977173 28.144085,83.325768 
	C27.320581,83.574875 26.674757,84.411362 25.873936,84.589066 
	C21.696440,83.546936 17.594654,82.901489 13.492868,82.256042 
	C13.520492,81.899651 13.548115,81.543266 13.575738,81.186882 
	C16.109005,81.186882 18.642273,81.186882 21.175541,81.186882 
	C21.321402,80.766273 21.467264,80.345673 21.613127,79.925064 
	C20.429098,78.996452 19.245070,78.067841 18.184219,77.235840 
	C18.762941,77.057358 19.488928,76.833450 20.413778,76.548218 
	C19.434290,76.107056 18.709118,75.780434 17.582205,75.272865 
	C19.391844,75.015182 20.656193,74.835144 22.870836,74.519783 
	C20.780107,74.069984 19.706261,73.838951 18.632416,73.607918 
	C18.616634,73.232025 18.600853,72.856125 18.585072,72.480232 
	C21.692291,72.228073 24.799511,71.975914 27.906731,71.723755 
	C27.906971,71.559105 27.907213,71.394455 27.907454,71.229805 
	C25.869507,71.065964 23.831560,70.902122 21.722252,70.732544 
	C22.948351,64.417259 28.276709,66.637833 31.816406,64.988312 
	C28.912331,64.988312 26.008255,64.988312 22.796167,64.988312 
	C23.455353,64.200058 23.809139,63.777004 24.200102,63.309494 
	C23.374699,63.086571 22.602295,62.877964 22.007044,62.717197 
	C23.918537,60.303230 25.832087,57.886662 27.898794,55.276676 
	C26.625534,53.600101 24.472712,51.476978 27.920826,48.831635 
	C30.245438,47.048222 32.343929,44.970066 34.359245,43.186867 
	C33.477863,43.041874 32.238049,42.837917 30.998230,42.633961 
	C31.189425,42.422447 31.360703,42.186245 31.579882,42.009422 
	C31.696276,41.915520 31.895744,41.924591 32.420349,41.920387 
	C34.197926,41.698837 35.612865,41.444077 37.798435,41.050560 
	C36.299168,40.255177 35.522060,39.842907 33.880356,38.971958 
	C36.257015,38.219776 37.177555,37.928436 38.276943,37.580494 
	C36.511715,36.295826 35.130386,35.045975 33.535881,34.196060 
	C31.797462,33.269436 29.861418,32.713573 28.203306,31.690628 
	C30.930769,30.268957 33.466450,29.152746 35.885414,28.087914 
	C35.458195,26.854567 34.900181,25.243624 34.768929,24.864708 
	C37.891491,22.067907 40.289288,19.696474 42.921505,17.622562 
	C45.832645,15.328887 48.740570,12.839314 52.051807,11.299081 
	C55.378159,9.751812 59.199299,9.268252 63.414658,8.157536 
	C61.305012,8.049382 59.718098,7.968027 57.552097,7.856984 
	C62.393951,5.388159 66.696976,3.194079 71.000000,0.999999 
z"/>
<path fill="#3D3D3D" opacity="1.000000" stroke="none" 
	d="
M32.057716,41.887177 
	C31.895744,41.924591 31.696276,41.915520 31.579882,42.009422 
	C31.360703,42.186245 31.189425,42.422447 30.998230,42.633961 
	C32.238049,42.837917 33.477863,43.041874 34.359245,43.186867 
	C32.343929,44.970066 30.245438,47.048222 27.920826,48.831635 
	C24.472712,51.476978 26.625534,53.600101 27.898794,55.276676 
	C25.832087,57.886662 23.918537,60.303230 22.007044,62.717197 
	C22.602295,62.877964 23.374699,63.086571 24.200102,63.309494 
	C23.809139,63.777004 23.455353,64.200058 22.796167,64.988312 
	C26.008255,64.988312 28.912331,64.988312 31.816406,64.988312 
	C28.276709,66.637833 22.948351,64.417259 21.722252,70.732544 
	C23.831560,70.902122 25.869507,71.065964 27.907454,71.229805 
	C27.907213,71.394455 27.906971,71.559105 27.906731,71.723755 
	C24.799511,71.975914 21.692291,72.228073 18.585072,72.480232 
	C18.600853,72.856125 18.616634,73.232025 18.632416,73.607918 
	C19.706261,73.838951 20.780107,74.069984 22.870836,74.519783 
	C20.656193,74.835144 19.391844,75.015182 17.582205,75.272865 
	C18.709118,75.780434 19.434290,76.107056 20.413778,76.548218 
	C19.488928,76.833450 18.762941,77.057358 18.184219,77.235840 
	C19.245070,78.067841 20.429098,78.996452 21.613127,79.925064 
	C21.467264,80.345673 21.321402,80.766273 21.175541,81.186882 
	C18.642273,81.186882 16.109005,81.186882 13.575738,81.186882 
	C13.548115,81.543266 13.520492,81.899651 13.492868,82.256042 
	C17.594654,82.901489 21.696440,83.546936 25.425148,84.594238 
	C18.930679,83.436317 14.120057,86.919647 9.008905,89.207825 
	C8.672030,89.358635 8.336558,89.940620 8.327201,90.329903 
	C8.211653,95.136597 5.090306,96.589920 1.000000,97.000000 
	C1.000000,65.084541 1.000000,33.169090 1.000000,1.000000 
	C24.020273,1.000000 47.041477,1.000000 70.531342,0.999999 
	C66.696976,3.194079 62.393951,5.388159 57.552097,7.856984 
	C59.718098,7.968027 61.305012,8.049382 63.414658,8.157536 
	C59.199299,9.268252 55.378159,9.751812 52.051807,11.299081 
	C48.740570,12.839314 45.832645,15.328887 42.921505,17.622562 
	C40.289288,19.696474 37.891491,22.067907 34.768929,24.864708 
	C34.900181,25.243624 35.458195,26.854567 35.885414,28.087914 
	C33.466450,29.152746 30.930769,30.268957 27.843334,31.739464 
	C23.776237,34.110970 24.276928,35.758514 27.815079,36.954140 
	C29.789852,37.621456 31.840872,38.063133 34.445969,38.765038 
	C33.364769,40.178482 32.711243,41.032829 32.057716,41.887177 
z"/>
<path fill="#0E0E0E" opacity="1.000000" stroke="none" 
	d="
M118.907158,68.967300 
	C119.088791,68.973656 119.270416,68.980003 119.745003,69.396233 
	C120.751152,70.523193 121.584900,71.946419 122.158936,71.848412 
	C128.058731,70.841118 130.014236,75.577927 132.800385,79.282745 
	C132.430817,80.742668 132.175232,81.871223 131.748138,83.301392 
	C129.505066,89.970459 127.320366,96.304482 125.423233,102.723495 
	C124.759186,104.970329 124.038429,107.658371 124.671066,109.741852 
	C126.353439,115.282478 128.758545,120.603645 130.881165,126.344406 
	C130.920029,127.118401 130.953934,127.560097 130.861450,128.293335 
	C130.538589,129.391113 130.342133,130.197342 129.945312,131.201660 
	C127.259766,131.514984 125.562614,132.079422 126.822823,135.229645 
	C127.172142,136.102875 126.677956,138.265686 126.369415,138.306274 
	C122.117210,138.865646 125.412514,141.465698 125.000000,143.000000 
	C110.645775,143.000000 96.291542,143.000000 81.469208,142.613159 
	C81.334068,140.484207 81.667038,138.742111 82.366592,136.950134 
	C84.933350,135.981903 87.133507,135.063553 88.087196,134.665482 
	C87.650673,131.290161 87.300919,128.279221 86.853180,125.282928 
	C86.686996,124.170837 86.291008,123.093102 85.999908,121.999847 
	C86.000000,122.000000 86.000305,122.000168 85.967072,121.675591 
	C84.621796,119.615822 83.309746,117.880623 82.370514,116.075165 
	C83.497040,115.939911 84.250748,115.874916 85.384216,115.895645 
	C87.031151,115.482803 88.298325,114.984230 90.378250,114.165878 
	C87.956581,114.165878 86.480339,114.165878 84.757103,114.067101 
	C84.392250,113.666061 84.274384,113.363808 84.470856,112.924942 
	C85.188416,109.796471 85.591637,106.804619 86.344940,103.891891 
	C87.768188,103.712723 88.841362,103.454414 90.074753,102.952988 
	C91.823471,102.140015 93.411972,101.570160 95.000237,101.000153 
	C95.000000,101.000000 94.999695,100.999695 95.266510,101.267838 
	C98.127686,101.018440 100.880241,100.855553 103.236595,99.804436 
	C104.147011,99.398315 104.158691,96.977463 104.579834,95.474503 
	C103.435677,95.214241 102.273132,95.015701 101.151016,94.681480 
	C98.423027,93.868919 95.713799,92.993332 93.366051,92.065994 
	C94.894943,91.916939 96.054810,91.845024 97.419540,91.760406 
	C95.413315,90.669792 93.713814,89.745918 92.310310,88.901413 
	C92.988930,88.829353 93.371552,88.677917 93.754181,88.526474 
	C93.545456,88.332886 93.336723,88.139290 93.113510,87.673515 
	C93.400208,87.213196 93.701378,87.025055 94.341049,86.834999 
	C95.785416,86.171097 96.891281,85.509117 98.371468,84.834213 
	C102.846977,82.925369 106.948174,81.029465 111.394585,79.074112 
	C111.826645,78.343063 111.913498,77.671455 112.068794,76.620193 
	C112.811111,75.810555 113.634102,75.508255 114.131584,74.927246 
	C115.786446,72.994545 117.324387,70.961731 118.907158,68.967300 
M95.566353,104.513512 
	C95.566353,104.513512 95.479408,104.560753 95.566353,104.513512 
z"/>
<path fill="#0C0C0C" opacity="1.000000" stroke="none" 
	d="
M1.000000,97.468658 
	C5.090306,96.589920 8.211653,95.136597 8.327201,90.329903 
	C8.336558,89.940620 8.672030,89.358635 9.008905,89.207825 
	C14.120057,86.919647 18.930679,83.436317 25.500862,84.990921 
	C26.674757,84.411362 27.320581,83.574875 28.144085,83.325768 
	C29.296535,82.977173 30.581406,83.066338 31.809622,82.968216 
	C31.446596,83.968071 31.070507,84.963409 30.724220,85.969025 
	C30.378500,86.972984 30.062634,87.987236 29.733681,88.996971 
	C30.753122,89.063515 31.785324,89.263084 32.789143,89.166779 
	C34.476788,89.004860 37.483673,88.144791 37.606506,88.466812 
	C38.402462,90.553574 39.129211,92.965111 38.805885,95.108414 
	C38.354122,98.103149 36.560509,101.054642 40.512428,102.902512 
	C42.188690,100.699364 43.682720,98.735725 45.459885,96.399956 
	C43.748894,89.956635 45.183510,84.362976 50.166656,82.114098 
	C52.919701,83.329994 54.958691,84.673798 57.107452,86.318970 
	C59.092823,91.250793 63.479248,90.035477 67.281403,90.900436 
	C68.011543,91.255592 68.465187,91.534554 68.546837,91.861008 
	C67.219383,92.050911 66.263908,92.193321 65.308441,92.335739 
	C65.277023,92.663963 65.245613,92.992188 65.214195,93.320412 
	C67.476059,93.883034 69.737923,94.445648 72.333435,95.217491 
	C74.325775,95.724464 75.984459,96.022217 77.643143,96.319962 
	C77.612434,96.492599 77.581718,96.665237 77.551003,96.837875 
	C75.449379,96.983566 73.347755,97.129257 71.624977,97.248680 
	C72.122307,98.725861 72.502510,99.855148 72.582680,101.182205 
	C72.193237,101.602226 72.103821,101.824486 71.807861,102.048981 
	C71.521538,102.162430 71.441750,102.273628 71.361969,102.384834 
	C71.573334,102.485535 71.784691,102.586235 72.349564,102.827873 
	C73.462334,102.996704 74.221603,103.024597 74.969482,103.331635 
	C74.640259,103.794601 74.322411,103.978416 73.642044,104.089706 
	C72.625931,104.118256 71.972336,104.219337 71.318748,104.320419 
	C71.332848,104.516495 71.346947,104.712563 71.361046,104.908630 
	C72.250000,104.908630 73.138954,104.908630 74.471634,105.176468 
	C74.106987,109.795235 70.377167,107.063980 67.852859,108.008942 
	C59.828236,105.663948 50.547642,107.937332 47.211136,112.845398 
	C48.043316,113.614403 48.882763,114.390129 50.146801,115.558228 
	C47.865669,115.877052 46.280029,116.098671 44.930504,116.287285 
	C44.930504,118.072617 44.930504,119.556587 44.705772,121.214691 
	C44.320747,121.925880 44.160450,122.462936 43.666233,122.932114 
	C40.756451,120.664833 39.991261,115.510086 34.396370,118.470032 
	C31.191362,120.165627 26.054781,115.581245 24.086002,121.039391 
	C22.813974,118.537354 21.573462,116.097305 20.332947,113.657249 
	C19.761148,113.824219 19.189350,113.991188 18.617552,114.158157 
	C18.099590,115.672951 17.289785,117.156448 17.123280,118.708939 
	C16.755375,122.139252 16.317537,125.508118 22.015636,124.223747 
	C24.815409,123.592674 27.999317,124.665825 31.369673,125.003876 
	C32.666199,120.647369 35.971340,121.605698 39.076511,122.579613 
	C37.279877,125.163223 35.611233,127.562782 33.467022,130.646225 
	C37.967976,130.953644 41.194790,131.174026 44.791042,131.419662 
	C44.512360,128.454010 44.256104,125.727005 44.310928,122.953110 
	C45.081055,122.292557 45.540092,121.678886 46.356316,120.948914 
	C49.138573,120.274910 51.563644,119.717232 53.943588,119.490509 
	C52.410881,121.741211 50.923298,123.660973 49.439735,125.583832 
	C53.069309,131.615662 53.013233,131.723145 46.548061,135.850479 
	C46.093464,136.140686 46.170055,137.262985 45.993027,138.387283 
	C45.963329,139.294327 45.940247,139.812439 45.626953,140.326324 
	C44.949200,140.323669 44.561661,140.325241 43.991302,140.036499 
	C43.204441,139.495850 42.600391,139.245514 41.997437,138.639725 
	C42.001236,137.575516 42.003941,136.866776 42.164780,135.945923 
	C37.551369,134.328323 32.779827,132.922806 27.992279,131.187103 
	C27.250885,129.279984 26.525497,127.703072 25.339874,125.125648 
	C22.717472,127.643105 20.757858,129.524292 18.798244,131.405487 
	C19.529755,131.449677 20.261265,131.493866 20.992777,131.538071 
	C22.062218,132.861908 23.131659,134.185760 24.044853,135.697479 
	C23.531147,136.595612 23.349552,137.525696 22.785130,137.977234 
	C20.589348,139.733902 18.272074,141.338699 16.000000,143.000000 
	C15.250000,143.000000 14.500000,143.000000 13.330608,142.710403 
	C12.592186,142.112015 12.273154,141.803207 11.954123,141.494415 
	C11.636082,141.996277 11.318041,142.498138 11.000000,143.000000 
	C10.555555,143.000000 10.111111,143.000000 9.347116,142.613403 
	C9.685044,139.484528 10.342522,136.742264 10.999041,133.623077 
	C10.687063,131.942368 10.376044,130.638580 10.406925,130.768036 
	C6.431197,130.020798 3.715598,129.510391 1.000000,129.000000 
	C1.000000,118.645775 1.000000,108.291542 1.000000,97.468658 
M19.585493,104.190414 
	C18.480888,104.745316 17.376284,105.300217 15.976831,106.003227 
	C16.917719,108.193665 17.723881,110.070457 18.810291,112.599686 
	C20.733789,110.228676 22.121084,108.826141 23.099247,107.180435 
	C23.573391,106.382713 23.697561,104.799721 23.209093,104.181320 
	C22.782902,103.641769 21.274967,103.956673 19.585493,104.190414 
M15.466082,135.076965 
	C14.626418,136.377304 13.786755,137.677658 12.947091,138.977997 
	C13.372721,139.297180 13.798350,139.616364 14.223980,139.935532 
	C15.395782,138.580276 16.567583,137.225021 17.739384,135.869766 
	C17.157677,135.467834 16.575972,135.065918 15.466082,135.076965 
M38.815678,106.436539 
	C38.811092,106.801056 38.806511,107.165581 38.801926,107.530098 
	C38.953140,107.531952 39.235779,107.544189 39.236576,107.534149 
	C39.265240,107.171455 39.267628,106.806671 38.815678,106.436539 
M47.071136,132.798203 
	C47.401722,132.654633 47.732307,132.511063 48.062893,132.367493 
	C47.654133,132.397491 47.245369,132.427490 47.071136,132.798203 
M38.486336,115.565559 
	C38.486336,115.565559 38.439346,115.479141 38.486336,115.565559 
z"/>
<path fill="#3A3A3A" opacity="1.000000" stroke="none" 
	d="
M130.987854,128.001785 
	C130.953934,127.560097 130.920029,127.118401 131.291687,126.331520 
	C135.105408,125.851875 135.700775,123.153366 134.847839,121.060852 
	C133.186600,116.985382 130.705750,113.243996 128.090363,108.505524 
	C128.903381,108.027412 130.774536,106.927032 133.118637,105.548531 
	C131.112289,104.464043 129.469955,103.576309 127.674400,102.605751 
	C133.697601,99.623093 134.062881,98.193413 130.485367,91.902519 
	C133.321014,89.659164 135.880737,87.159920 134.266418,82.797699 
	C136.166840,80.375305 139.639389,77.401985 139.095108,76.069702 
	C137.173355,71.365692 139.409882,70.075142 143.000000,69.000000 
	C143.000000,93.666702 143.000000,118.333397 143.000000,143.000000 
	C139.595810,143.000000 136.280869,143.000000 132.529465,142.640350 
	C133.251373,138.233047 138.087982,135.056046 134.800568,129.742477 
	C133.397217,128.988541 132.192535,128.495163 130.987854,128.001785 
z"/>
<path fill="#3A3A3A" opacity="1.000000" stroke="none" 
	d="
M139.240280,39.034962 
	C139.099030,37.039066 138.957779,35.043167 139.029022,32.337234 
	C141.425568,27.454821 137.123413,20.494925 131.848022,19.734451 
	C130.471436,18.633535 129.293274,17.785387 128.115097,16.937237 
	C125.192253,9.405442 118.626534,5.632554 112.150635,1.305769 
	C122.267365,1.000000 132.534729,1.000000 143.000000,1.000000 
	C143.000000,13.353524 143.000000,25.708103 142.620575,38.532013 
	C141.240845,39.012547 140.240570,39.023754 139.240280,39.034962 
z"/>
<path fill="#0B0B0B" opacity="1.000000" stroke="none" 
	d="
M45.917168,140.330551 
	C45.940247,139.812439 45.963329,139.294327 46.442955,138.387192 
	C49.598957,137.997971 52.298409,137.997772 55.373253,137.998352 
	C56.499371,137.999222 57.250099,137.999313 58.427753,137.999481 
	C65.236992,137.974854 67.368614,136.411835 69.691734,130.053314 
	C68.131615,129.049606 66.571548,128.045807 65.080490,126.708313 
	C65.246483,125.160568 69.339790,127.476105 67.403778,124.123924 
	C68.150276,123.991402 68.577087,123.919136 69.328705,123.886322 
	C70.510414,123.311234 71.367310,122.696693 72.623528,122.068314 
	C74.659874,121.196281 76.434830,120.521172 77.891533,119.423660 
	C79.120102,118.498047 79.979202,117.082031 81.255951,115.929138 
	C81.672615,116.031937 81.835159,116.088684 81.997696,116.145424 
	C83.309746,117.880623 84.621796,119.615822 85.693329,121.714798 
	C85.140465,122.372925 84.828125,122.667274 84.515785,122.961617 
	C84.715942,123.133507 84.916092,123.305397 85.116249,123.477287 
	C85.410774,122.984756 85.705299,122.492226 85.999825,121.999695 
	C86.291008,123.093102 86.686996,124.170837 86.853180,125.282928 
	C87.300919,128.279221 87.650673,131.290161 88.087196,134.665482 
	C87.133507,135.063553 84.933350,135.981903 82.365288,136.552109 
	C81.637794,134.606140 81.620621,132.798309 80.810226,131.476974 
	C80.162071,130.420151 78.612152,129.631897 77.334251,129.383179 
	C76.809158,129.280960 75.367432,130.913254 75.376129,131.745743 
	C75.388954,132.972229 76.005295,134.666565 76.945007,135.298477 
	C78.367966,136.255325 80.290009,136.469986 82.000000,137.000000 
	C81.667038,138.742111 81.334068,140.484207 81.000549,142.613159 
	C79.285645,143.000000 77.571281,143.000000 75.271301,142.656036 
	C72.644173,141.544754 70.616409,140.165863 68.558685,140.119598 
	C61.016907,139.950073 53.465160,140.223740 45.917168,140.330551 
M78.523605,140.276138 
	C78.272133,140.011673 78.022972,139.744705 77.756241,139.496643 
	C77.749374,139.490265 77.550018,139.690857 77.440430,139.794922 
	C77.692230,140.059479 77.944031,140.324051 78.523605,140.276138 
z"/>
<path fill="#343434" opacity="1.000000" stroke="none" 
	d="
M139.173859,39.029118 
	C140.240570,39.023754 141.240845,39.012547 142.620575,39.000671 
	C143.000000,48.687561 143.000000,58.375122 143.000000,68.531342 
	C139.409882,70.075142 137.173355,71.365692 139.095108,76.069702 
	C139.639389,77.401985 136.166840,80.375305 133.920868,82.798004 
	C132.843384,82.999908 132.381516,82.999840 131.919632,82.999771 
	C132.175232,81.871223 132.430817,80.742668 132.880585,78.914352 
	C135.010864,72.146019 136.946976,66.077461 138.938751,59.610229 
	C139.049133,56.145103 139.103882,53.078644 139.315033,49.646057 
	C139.307083,45.849842 139.142715,42.419758 138.978333,38.989677 
	C138.978348,38.989677 139.107422,39.023273 139.173859,39.029118 
z"/>
<path fill="#4C4C4C" opacity="1.000000" stroke="none" 
	d="
M28.008286,131.517303 
	C32.779827,132.922806 37.551369,134.328323 41.761669,135.895081 
	C39.468800,136.056351 37.737171,136.056351 36.005547,136.056351 
	C36.189648,136.360611 36.373745,136.664871 36.557846,136.969131 
	C34.038563,138.979416 31.519279,140.989700 28.999998,143.000000 
	C24.975456,143.000000 20.950911,143.000000 16.463184,143.000000 
	C18.272074,141.338699 20.589348,139.733902 22.785130,137.977234 
	C23.349552,137.525696 23.531147,136.595612 24.385006,135.559921 
	C25.923695,133.995407 26.965990,132.756363 28.008286,131.517303 
z"/>
<path fill="#343434" opacity="1.000000" stroke="none" 
	d="
M134.999222,130.003052 
	C138.087982,135.056046 133.251373,138.233047 132.046509,142.640350 
	C129.958328,143.000000 127.916664,143.000000 125.437500,143.000000 
	C125.412514,141.465698 122.117210,138.865646 126.369415,138.306274 
	C126.677956,138.265686 127.172142,136.102875 126.822823,135.229645 
	C125.562614,132.079422 127.259766,131.514984 130.284485,131.207626 
	C132.215759,130.678009 133.607483,130.340530 134.999222,130.003052 
z"/>
<path fill="#4B4B4B" opacity="1.000000" stroke="none" 
	d="
M45.626953,140.326324 
	C53.465160,140.223740 61.016907,139.950073 68.558685,140.119598 
	C70.616409,140.165863 72.644173,141.544754 74.842842,142.656036 
	C63.979107,143.000000 52.958210,143.000000 41.520084,142.676437 
	C41.075855,141.917053 41.048862,141.481247 41.353218,141.036942 
	C42.514420,140.794586 43.344269,140.560699 44.174118,140.326828 
	C44.561661,140.325241 44.949200,140.323669 45.626953,140.326324 
z"/>
<path fill="#0E0E0E" opacity="1.000000" stroke="none" 
	d="
M1.000000,129.474121 
	C3.715598,129.510391 6.431197,130.020798 10.406925,130.768036 
	C10.376044,130.638580 10.687063,131.942368 10.638767,133.666351 
	C7.098202,135.402298 3.285259,136.144424 4.001208,141.333038 
	C4.000485,142.110962 4.000243,142.555481 4.000000,143.000000 
	C3.027167,143.000000 2.054334,143.000000 1.000000,143.000000 
	C1.000000,138.649628 1.000000,134.298935 1.000000,129.474121 
z"/>
<path fill="#0E0E0E" opacity="1.000000" stroke="none" 
	d="
M41.021866,141.045425 
	C41.048862,141.481247 41.075855,141.917053 41.051426,142.676437 
	C37.307091,143.000000 33.614182,143.000000 29.460634,143.000000 
	C31.519279,140.989700 34.038563,138.979416 36.557846,136.969131 
	C36.373745,136.664871 36.189648,136.360611 36.005547,136.056351 
	C37.737171,136.056351 39.468800,136.056351 41.603539,136.107178 
	C42.003941,136.866776 42.001236,137.575516 41.738220,138.662659 
	C41.325897,139.709167 41.173885,140.377289 41.021866,141.045425 
z"/>
<path fill="#0B0B0B" opacity="1.000000" stroke="none" 
	d="
M4.001688,140.999649 
	C3.285259,136.144424 7.098202,135.402298 10.639727,134.043274 
	C10.342522,136.742264 9.685044,139.484528 9.013783,142.613403 
	C8.250000,143.000000 7.500000,143.000000 6.325759,142.684509 
	C5.268241,141.912567 4.634964,141.456100 4.001688,140.999649 
z"/>
<path fill="#0E0E0E" opacity="1.000000" stroke="none" 
	d="
M11.333334,143.000000 
	C11.318041,142.498138 11.636082,141.996277 11.954123,141.494415 
	C12.273154,141.803207 12.592186,142.112015 12.955608,142.710403 
	C12.555555,143.000000 12.111111,143.000000 11.333334,143.000000 
z"/>
<path fill="#0C0C0C" opacity="1.000000" stroke="none" 
	d="
M4.001208,141.333038 
	C4.634964,141.456100 5.268241,141.912567 5.950759,142.684509 
	C5.555555,143.000000 5.111111,143.000000 4.333333,143.000000 
	C4.000243,142.555481 4.000485,142.110962 4.001208,141.333038 
z"/>
<path fill="#F1F1F1" opacity="1.000000" stroke="none" 
	d="
M82.370514,116.075165 
	C81.835159,116.088684 81.672615,116.031937 81.222054,115.633499 
	C78.113472,113.276604 75.142792,112.378471 71.461746,114.035088 
	C70.146523,112.067368 69.194016,110.132339 68.241508,108.197304 
	C70.377167,107.063980 74.106987,109.795235 74.465408,104.989876 
	C74.015450,104.535454 74.004570,104.162231 74.004570,104.162231 
	C74.322411,103.978416 74.640259,103.794601 74.947136,103.044891 
	C74.251678,101.980812 73.567192,101.482620 72.882713,100.984428 
	C72.502510,99.855148 72.122307,98.725861 71.624977,97.248680 
	C73.347755,97.129257 75.449379,96.983566 77.551003,96.837875 
	C77.581718,96.665237 77.612434,96.492599 77.643143,96.319962 
	C75.984459,96.022217 74.325775,95.724464 72.275032,94.884026 
	C70.894928,93.498734 69.906876,92.656128 68.918823,91.813522 
	C68.465187,91.534554 68.011543,91.255592 67.229248,90.572250 
	C65.266869,87.445908 63.633148,84.723938 62.204811,81.768768 
	C64.996323,82.691231 67.582458,83.846901 70.168587,85.002563 
	C70.532555,84.557449 70.896515,84.112335 71.260483,83.667221 
	C69.615265,81.344322 67.970039,79.021423 66.160896,76.467087 
	C66.437218,75.936798 67.169510,74.651863 67.725502,73.294708 
	C67.787132,73.144272 66.842896,72.581741 66.365150,72.210335 
	C65.426285,73.418724 64.581421,74.717697 63.525551,75.813324 
	C62.099678,77.292877 60.511600,78.616104 58.687992,80.007401 
	C57.848282,80.223419 57.313705,80.438431 56.779129,80.653442 
	C57.520458,81.102188 58.261787,81.550934 59.001556,81.999840 
	C59.000000,82.000000 59.000458,81.996918 58.991028,82.339119 
	C58.320286,83.793411 57.658981,84.905502 56.997681,86.017593 
	C54.958691,84.673798 52.919701,83.329994 50.514900,81.965309 
	C51.427948,81.466560 52.706806,80.988708 54.042301,80.489685 
	C51.957970,78.169281 49.088966,76.064201 47.966885,73.260071 
	C47.417892,71.888123 50.117939,69.216049 51.686684,67.494614 
	C52.827694,68.623177 53.629475,69.389549 54.431255,70.155922 
	C54.797413,69.876587 55.163574,69.597252 55.529732,69.317917 
	C54.960953,67.919380 54.392174,66.520844 53.823399,65.122307 
	C53.794273,64.927719 53.739616,64.740570 54.240723,64.352654 
	C55.547165,64.098228 56.272312,64.052010 57.283424,64.276962 
	C67.399841,67.197319 71.048607,58.923721 76.381042,52.568344 
	C74.408295,52.789860 72.435547,53.011375 70.161133,53.266766 
	C70.453255,51.781578 70.726784,50.390942 71.407440,48.999123 
	C74.209724,48.665241 76.604858,48.332542 79.373833,48.094276 
	C80.421524,50.587914 81.095390,52.987114 81.669945,55.032730 
	C84.585289,55.665440 87.282745,56.250862 90.164001,56.876171 
	C90.164001,53.691204 90.164001,50.916668 90.164001,47.950085 
	C91.594452,47.950085 92.865036,47.950085 94.135635,47.950081 
	C94.634697,49.426262 95.233215,50.881817 95.547256,52.396358 
	C95.608627,52.692329 94.566521,53.217110 93.555092,54.042980 
	C92.906349,54.950619 92.735893,55.451633 92.565437,55.952644 
	C92.668472,55.625328 92.771507,55.298016 92.926147,55.278145 
	C93.385979,56.418736 93.794205,57.251877 94.202431,58.085018 
	C96.620140,58.548267 99.037857,59.011517 102.266983,59.630238 
	C99.715385,59.893799 97.920647,60.079178 94.723236,60.409443 
	C96.778458,61.503197 97.686478,61.986427 98.771790,62.564007 
	C97.797722,62.877048 96.930862,63.155640 96.178116,63.397556 
	C97.025070,65.301712 97.370201,67.851685 98.789131,68.807350 
	C100.467209,69.937561 103.072289,69.691391 105.665680,70.597122 
	C107.024567,71.591766 107.993309,72.031143 108.962051,72.470520 
	C109.627686,70.941925 110.293312,69.413338 110.958939,67.884758 
	C113.683861,66.847023 116.477730,64.074524 118.952194,68.585800 
	C117.324387,70.961731 115.786446,72.994545 114.131584,74.927246 
	C113.634102,75.508255 112.811111,75.810555 111.829170,76.813980 
	C111.363861,77.969467 111.206612,78.551514 111.049362,79.133560 
	C106.948174,81.029465 102.846977,82.925369 98.360695,84.480614 
	C96.219513,81.077187 94.880798,80.766708 93.004120,83.321686 
	C93.333199,84.430939 93.659676,85.204857 93.989861,86.193314 
	C93.993568,86.407860 94.002556,86.836922 94.002556,86.836922 
	C93.701378,87.025055 93.400208,87.213196 92.892914,87.771759 
	C92.399879,88.306725 92.175720,88.533340 92.014313,88.822044 
	C93.713814,89.745918 95.413315,90.669792 97.419540,91.760406 
	C96.054810,91.845024 94.894943,91.916939 93.020088,91.998322 
	C91.220276,93.045006 90.135452,94.082207 88.840469,94.859055 
	C87.913925,94.629181 87.197525,94.659668 86.481133,94.690155 
	C86.732552,95.495483 86.983971,96.300804 87.151741,97.474686 
	C86.651024,99.230377 86.233955,100.617493 85.448616,102.020264 
	C81.155342,105.176186 80.804260,109.366203 84.156517,113.061546 
	C84.274384,113.363808 84.392250,113.666061 84.757118,114.341110 
	C85.004234,115.079231 85.004349,115.444580 85.004456,115.809921 
	C84.250748,115.874916 83.497040,115.939911 82.370514,116.075165 
M84.668495,89.984352 
	C85.268806,89.606773 85.869118,89.229195 86.469437,88.851624 
	C86.247253,88.649910 85.855125,88.251678 85.827797,88.275314 
	C85.194778,88.822701 84.601364,89.415901 83.452522,90.078598 
	C83.139801,90.373413 82.827080,90.668236 82.514359,90.963051 
	C82.714859,91.135078 82.915352,91.307106 83.115837,91.479126 
	C83.410355,90.985878 83.704865,90.492630 84.668495,89.984352 
M103.643349,77.892151 
	C103.929260,77.150673 104.215172,76.409203 104.501083,75.667732 
	C103.477173,75.717621 102.453262,75.767509 101.429352,75.817398 
	C101.619423,76.541985 101.809494,77.266563 102.178833,78.300240 
	C102.445534,78.206650 102.712242,78.113060 103.643349,77.892151 
M56.922337,77.666595 
	C58.679443,76.750381 60.436550,75.834167 62.193657,74.917953 
	C57.819622,72.031006 56.702442,73.972069 56.922337,77.666595 
M86.812874,66.139847 
	C85.606598,66.665176 84.400314,67.190506 83.194038,67.715836 
	C84.103409,68.447601 85.012779,69.179367 85.922150,69.911133 
	C86.296051,68.863831 86.669952,67.816536 86.812874,66.139847 
M90.508308,78.174194 
	C90.221718,78.583641 89.935127,78.993080 89.648529,79.402519 
	C90.072884,79.512314 90.497238,79.622101 90.921585,79.731888 
	C90.972557,79.253807 91.023529,78.775719 90.508308,78.174194 
M83.707825,98.174973 
	C83.658234,97.739388 83.608643,97.303795 83.559059,96.868210 
	C83.193802,97.046112 82.828552,97.224022 82.463295,97.401932 
	C82.750359,97.781609 83.037430,98.161278 83.707825,98.174973 
M81.276970,63.472626 
	C81.011826,63.725060 80.744095,63.975090 80.495522,64.242897 
	C80.488907,64.250023 80.690109,64.450035 80.794395,64.560097 
	C81.059738,64.307259 81.325073,64.054413 81.276970,63.472626 
M98.182968,77.913040 
	C98.403984,77.866112 98.625008,77.819183 98.846016,77.772255 
	C98.766464,77.485466 98.686913,77.198669 98.607353,76.911873 
	C98.438919,77.107872 98.270477,77.303879 98.182968,77.913040 
M77.533295,101.830078 
	C77.461937,102.233078 77.390587,102.636070 77.319221,103.039070 
	C77.490059,102.732254 77.660896,102.425438 77.533295,101.830078 
M75.836449,108.710297 
	C75.917610,108.566452 75.998772,108.422600 76.079941,108.278763 
	C75.946976,108.340927 75.814011,108.403084 75.836449,108.710297 
M100.433403,79.485344 
	C100.433403,79.485344 100.522614,79.436516 100.433403,79.485344 
M53.433029,75.487503 
	C53.433029,75.487503 53.521397,75.439880 53.433029,75.487503 
M61.432774,70.487038 
	C61.432774,70.487038 61.520748,70.438988 61.432774,70.487038 
M79.568398,105.514496 
	C79.568398,105.514496 79.479019,105.563728 79.568398,105.514496 
M75.568001,110.513878 
	C75.568001,110.513878 75.478523,110.562798 75.568001,110.513878 
z"/>
<path fill="#0B0B0B" opacity="1.000000" stroke="none" 
	d="
M138.883087,60.008904 
	C136.946976,66.077461 135.010864,72.146019 132.994553,78.582970 
	C130.014236,75.577927 128.058731,70.841118 122.158936,71.848412 
	C121.584900,71.946419 120.751152,70.523193 120.017471,69.405037 
	C122.026939,67.574585 124.056885,66.145210 126.401871,64.493996 
	C121.582802,62.059990 117.708107,60.058342 113.793053,58.139019 
	C110.366615,56.459236 109.867622,52.176350 113.218102,50.251537 
	C117.018280,48.068382 119.622086,46.001247 116.450539,41.344322 
	C116.050797,40.757351 116.934258,38.846893 117.729622,38.064407 
	C118.205818,37.595924 119.666199,38.127945 120.684219,38.210064 
	C124.373825,38.507687 128.431000,39.874847 131.639450,38.772266 
	C134.319000,37.851440 136.082916,38.137341 138.625717,38.984047 
	C139.142715,42.419758 139.307083,45.849842 138.928925,49.647842 
	C134.608429,50.548656 130.961182,47.204544 129.973755,42.038361 
	C128.072830,42.038361 126.029243,41.725441 124.155396,42.154259 
	C123.008415,42.416737 122.121933,43.817566 121.118462,44.707169 
	C121.961899,45.471741 122.779541,46.267319 123.654022,46.994568 
	C125.599106,48.612183 128.713074,49.855225 129.311310,51.859600 
	C130.836853,56.970947 134.472443,58.743179 138.883087,60.008904 
M129.896469,59.598248 
	C127.313759,57.290123 124.587914,56.686153 121.524681,58.813675 
	C125.875809,62.705700 128.090607,63.018818 129.896469,59.598248 
z"/>
<path fill="#F4F4F4" opacity="1.000000" stroke="none" 
	d="
M71.000305,49.000301 
	C70.726784,50.390942 70.453255,51.781578 70.161133,53.266766 
	C72.435547,53.011375 74.408295,52.789860 76.381042,52.568344 
	C71.048607,58.923721 67.399841,67.197319 57.148163,64.060913 
	C56.818012,62.715607 56.909077,61.857529 57.218338,60.795609 
	C56.615173,60.057976 55.793808,59.524189 55.000805,58.701061 
	C54.688309,57.612785 54.347454,56.813854 53.900703,55.737656 
	C53.863724,54.303745 53.932632,53.147099 54.275532,52.123871 
	C55.371861,52.450920 56.194195,52.644554 57.016533,52.838184 
	C57.066448,52.341660 57.116367,51.845131 57.166283,51.348602 
	C55.110470,51.228832 53.054653,51.109062 50.998657,50.813526 
	C50.998470,50.637760 50.996883,50.286228 51.278267,50.189610 
	C51.911480,49.676151 52.263313,49.259308 52.615147,48.842468 
	C51.990696,48.547462 51.366245,48.252457 50.741795,47.957447 
	C52.020309,42.874847 55.548092,41.380714 60.258736,42.033512 
	C60.514008,39.952267 60.130142,36.749176 61.115276,36.250488 
	C63.946815,34.817135 67.168388,31.539387 70.554245,35.704277 
	C69.549828,35.874260 68.465828,36.057709 67.668289,36.192680 
	C69.007782,37.251846 70.416801,38.365990 71.998604,39.616753 
	C70.904434,39.926434 70.157585,40.137814 68.838135,40.511257 
	C70.139503,40.897640 70.904625,41.124813 71.669754,41.351982 
	C71.633377,41.498173 71.597000,41.644367 71.560616,41.790558 
	C69.679459,41.790558 67.798294,41.790558 66.039696,41.790558 
	C64.500595,43.947514 63.111526,45.894207 61.249786,48.333588 
	C60.643398,49.171272 60.509686,49.516262 60.375969,49.861256 
	C60.987064,49.646027 61.598156,49.430794 62.209251,49.215561 
	C63.906040,48.124249 65.602829,47.032932 67.694382,46.255310 
	C69.059532,47.379433 70.029922,48.189869 71.000305,49.000301 
M60.328331,54.008553 
	C59.440784,54.532188 58.553234,55.055824 57.665684,55.579460 
	C58.443890,56.053375 59.222099,56.527287 59.939014,57.655426 
	C60.300282,58.713993 60.661552,59.772560 61.022823,60.831127 
	C62.931675,60.051899 64.840530,59.272675 66.749382,58.493450 
	C66.612572,58.102928 66.475754,57.712406 66.338943,57.321888 
	C65.225334,57.214005 64.111732,57.106125 62.993744,56.326874 
	C62.661839,55.551121 62.329929,54.775364 61.503136,54.001415 
	C61.503136,54.001415 61.008255,54.003185 60.328331,54.008553 
M64.567726,54.514172 
	C64.567726,54.514172 64.479874,54.562195 64.567726,54.514172 
z"/>
<path fill="#0B0B0B" opacity="1.000000" stroke="none" 
	d="
M127.762894,17.095478 
	C129.293274,17.785387 130.471436,18.633535 131.974472,20.033680 
	C132.866425,21.722958 133.433517,22.860241 134.000626,23.997524 
	C134.000626,27.177685 134.000626,30.357847 134.000626,33.538010 
	C133.594635,33.538555 133.188644,33.539101 132.782654,33.539646 
	C132.710037,32.269035 132.637421,30.998421 132.546509,29.407883 
	C131.914780,29.797840 131.380783,29.932781 131.228027,30.250824 
	C128.739517,35.432304 126.277138,36.130875 122.301506,32.514549 
	C118.514404,29.069700 114.438110,25.982941 116.793037,19.468859 
	C117.850739,16.543095 118.293266,15.590957 121.335548,16.603067 
	C123.223770,17.231239 125.376617,17.063957 127.762894,17.095478 
z"/>
<path fill="#F4F4F4" opacity="1.000000" stroke="none" 
	d="
M94.046188,47.670090 
	C92.865036,47.950085 91.594452,47.950085 90.164001,47.950085 
	C90.164001,50.916668 90.164001,53.691204 90.164001,56.876171 
	C87.282745,56.250862 84.585289,55.665440 81.669945,55.032730 
	C81.095390,52.987114 80.421524,50.587914 79.373810,47.761898 
	C79.000175,46.891911 79.000404,46.448730 79.213669,45.888550 
	C79.692787,45.569927 79.883972,45.312641 80.000130,44.999847 
	C80.000000,45.000000 79.999695,45.000153 80.395912,44.997841 
	C84.427589,44.878323 84.885498,43.414787 82.578377,40.779705 
	C83.179207,40.215851 83.780029,39.651993 84.745155,39.465450 
	C86.741295,41.559742 88.373146,43.276718 89.849930,45.088692 
	C89.800934,45.455173 89.906990,45.726658 90.372108,45.997498 
	C91.449295,45.996597 92.167412,45.996342 92.885536,45.996086 
	C93.242607,46.460754 93.599686,46.925423 94.046188,47.670090 
z"/>
<path fill="#414141" opacity="1.000000" stroke="none" 
	d="
M32.420353,41.920387 
	C32.711243,41.032829 33.364769,40.178482 34.445969,38.765038 
	C31.840872,38.063133 29.789852,37.621456 27.815079,36.954140 
	C24.276928,35.758514 23.776237,34.110970 27.651550,32.044922 
	C29.861418,32.713573 31.797462,33.269436 33.535881,34.196060 
	C35.130386,35.045975 36.511715,36.295826 38.276943,37.580494 
	C37.177555,37.928436 36.257015,38.219776 33.880356,38.971958 
	C35.522060,39.842907 36.299168,40.255177 37.798435,41.050560 
	C35.612865,41.444077 34.197926,41.698837 32.420353,41.920387 
z"/>
<path fill="#F5F5F5" opacity="1.000000" stroke="none" 
	d="
M79.000633,46.005554 
	C79.000404,46.448730 79.000175,46.891911 78.999969,47.667465 
	C76.604858,48.332542 74.209724,48.665241 71.407440,48.999123 
	C70.029922,48.189869 69.059532,47.379433 68.043655,46.245201 
	C71.672714,44.457531 75.347267,42.993660 79.470291,41.901508 
	C79.945732,43.182201 79.972717,44.091175 79.999695,45.000153 
	C79.999695,45.000153 80.000000,45.000000 79.786499,45.116112 
	C79.305779,45.433414 79.114990,45.691193 79.000633,46.005554 
z"/>
<path fill="#FAFAFA" opacity="1.000000" stroke="none" 
	d="
M93.021774,45.640804 
	C92.167412,45.996342 91.449295,45.996597 90.370789,45.746384 
	C90.008598,45.328510 90.006790,45.161106 90.004990,44.993698 
	C88.373146,43.276718 86.741295,41.559742 85.056992,39.501030 
	C87.416565,39.304359 89.848045,39.323219 92.226021,39.689442 
	C92.772697,39.773632 93.135658,41.050739 93.583168,41.778862 
	C93.277237,42.169876 92.971313,42.560894 92.665382,42.951908 
	C94.280998,42.951908 95.896614,42.951908 97.512230,42.951908 
	C97.570770,43.194416 97.629311,43.436924 97.687851,43.679432 
	C96.177910,44.214794 94.667961,44.750156 93.021774,45.640804 
z"/>
<path fill="#323232" opacity="1.000000" stroke="none" 
	d="
M134.309204,24.175468 
	C133.433517,22.860241 132.866425,21.722958 132.172882,20.286446 
	C137.123413,20.494925 141.425568,27.454821 139.032089,31.909311 
	C137.421051,29.578754 136.019409,26.966084 134.309204,24.175468 
z"/>
<path fill="#F1F1F1" opacity="1.000000" stroke="none" 
	d="
M50.347115,64.837067 
	C48.496712,64.548088 46.646309,64.259102 44.904766,63.987125 
	C44.293362,58.908791 47.767941,60.200893 50.855000,60.239265 
	C51.109707,61.946812 50.728409,63.391937 50.347115,64.837067 
z"/>
<path fill="#F5F5F5" opacity="1.000000" stroke="none" 
	d="
M50.878227,64.900742 
	C50.728409,63.391937 51.109707,61.946812 51.275337,60.263977 
	C51.166550,59.843960 51.273422,59.661648 51.221790,58.929428 
	C51.379978,57.916672 51.696667,57.453831 52.273247,57.118851 
	C53.028011,57.823437 53.522892,58.400162 54.074398,59.318054 
	C55.087395,60.105965 56.043766,60.552708 57.000137,60.999451 
	C56.909077,61.857529 56.818012,62.715607 56.862206,63.789742 
	C56.272312,64.052010 55.547165,64.098228 54.280182,64.207741 
	C53.738346,64.271034 53.728859,64.279259 53.362270,64.253677 
	C52.860653,64.163727 52.725624,64.099350 52.590595,64.034973 
	C52.607559,64.103966 52.608795,64.222847 52.644005,64.233948 
	C52.896019,64.313393 53.154945,64.370903 53.411678,64.435379 
	C52.744232,64.611725 52.076786,64.788071 50.878227,64.900742 
z"/>
<path fill="#F5F5F5" opacity="1.000000" stroke="none" 
	d="
M50.996883,50.286228 
	C50.996883,50.286228 50.998470,50.637760 50.751312,51.016560 
	C50.665596,52.597210 50.827034,53.799065 50.719398,55.119820 
	C49.928234,55.507931 49.406147,55.777138 48.884064,56.046349 
	C46.426182,56.156830 44.708771,55.485092 46.623138,52.832230 
	C47.540661,51.560768 46.231709,48.514183 49.869747,49.372715 
	C50.477688,49.959831 50.719139,50.146500 50.996883,50.286228 
z"/>
<path fill="#F3F3F3" opacity="1.000000" stroke="none" 
	d="
M110.625641,67.884369 
	C110.293312,69.413338 109.627686,70.941925 108.962051,72.470520 
	C107.993309,72.031143 107.024567,71.591766 106.037186,70.811356 
	C106.202881,70.432556 106.387222,70.394806 107.079422,70.183533 
	C108.058983,69.399712 108.530678,68.789406 109.002373,68.179108 
	C109.432365,68.080727 109.862358,67.982353 110.625641,67.884369 
z"/>
<path fill="#F1F1F1" opacity="1.000000" stroke="none" 
	d="
M48.819199,56.392284 
	C49.406147,55.777138 49.928234,55.507931 50.969162,55.115681 
	C51.487999,54.992638 51.987232,54.984055 51.992348,55.245529 
	C52.001209,55.681187 52.004955,55.855370 52.009205,56.269913 
	C52.009708,56.510277 52.013355,56.990986 52.013359,56.990990 
	C51.696667,57.453831 51.379978,57.916672 51.037746,58.671333 
	C48.951664,58.963154 46.891121,58.963154 43.870213,58.963154 
	C46.058395,57.966343 47.406364,57.352283 48.819199,56.392284 
z"/>
<path fill="#F1F1F1" opacity="1.000000" stroke="none" 
	d="
M80.395920,44.997841 
	C79.972717,44.091175 79.945732,43.182201 79.885345,41.819679 
	C80.571709,41.149147 81.291481,40.932159 82.294815,40.747437 
	C84.885498,43.414787 84.427589,44.878323 80.395920,44.997841 
z"/>
<path fill="#F5F5F5" opacity="1.000000" stroke="none" 
	d="
M53.619240,65.295563 
	C54.392174,66.520844 54.960953,67.919380 55.529732,69.317917 
	C55.163574,69.597252 54.797413,69.876587 54.431255,70.155922 
	C53.629475,69.389549 52.827694,68.623177 52.014328,67.497421 
	C52.473522,66.581635 52.944302,66.025230 53.619240,65.295563 
z"/>
<path fill="#F4F4F4" opacity="1.000000" stroke="none" 
	d="
M94.529388,58.078011 
	C93.794205,57.251877 93.385979,56.418736 93.419052,55.426399 
	C94.703384,55.519798 95.546417,55.772385 96.699181,56.326279 
	C97.008919,56.627583 97.035011,57.093330 97.035011,57.093330 
	C96.308784,57.419220 95.582558,57.745113 94.529388,58.078011 
z"/>
<path fill="#F1F1F1" opacity="1.000000" stroke="none" 
	d="
M108.708046,68.146683 
	C108.530678,68.789406 108.058983,69.399712 107.341499,70.078743 
	C107.535049,69.469734 107.974388,68.791992 108.708046,68.146683 
z"/>
<path fill="#E8E8E8" opacity="1.000000" stroke="none" 
	d="
M51.278267,50.189610 
	C50.719139,50.146500 50.477688,49.959831 50.183399,49.515160 
	C50.138721,49.049133 50.183178,48.794174 50.484711,48.248329 
	C51.366245,48.252457 51.990696,48.547462 52.615147,48.842468 
	C52.263313,49.259308 51.911480,49.676151 51.278267,50.189610 
z"/>
<path fill="#F1F1F1" opacity="1.000000" stroke="none" 
	d="
M97.379776,57.061150 
	C97.035011,57.093330 97.008919,56.627583 97.003372,56.394409 
	C97.604996,56.242020 98.212181,56.322803 98.819359,56.403580 
	C98.454422,56.612041 98.089485,56.820503 97.379776,57.061150 
z"/>
<path fill="#F4F4F4" opacity="1.000000" stroke="none" 
	d="
M92.971237,55.859062 
	C92.735893,55.451633 92.906349,54.950619 93.495171,54.358162 
	C93.734703,54.766304 93.555870,55.265892 92.971237,55.859062 
z"/>
<path fill="#F1F1F1" opacity="1.000000" stroke="none" 
	d="
M53.483467,64.422104 
	C53.154945,64.370903 52.896019,64.313393 52.644005,64.233948 
	C52.608795,64.222847 52.607559,64.103966 52.590595,64.034973 
	C52.725624,64.099350 52.860653,64.163727 53.313889,64.256393 
	C53.632099,64.284683 53.555256,64.408829 53.483467,64.422104 
z"/>
<path fill="#333333" opacity="1.000000" stroke="none" 
	d="
M131.748138,83.301392 
	C132.381516,82.999840 132.843384,82.999908 133.650803,82.999687 
	C135.880737,87.159920 133.321014,89.659164 130.485367,91.902519 
	C134.062881,98.193413 133.697601,99.623093 127.674400,102.605751 
	C129.469955,103.576309 131.112289,104.464043 133.118637,105.548531 
	C130.774536,106.927032 128.903381,108.027412 128.090363,108.505524 
	C130.705750,113.243996 133.186600,116.985382 134.847839,121.060852 
	C135.700775,123.153366 135.105408,125.851875 131.286743,125.999207 
	C128.758545,120.603645 126.353439,115.282478 124.671066,109.741852 
	C124.038429,107.658371 124.759186,104.970329 125.423233,102.723495 
	C127.320366,96.304482 129.505066,89.970459 131.748138,83.301392 
M127.566483,99.514618 
	C127.566483,99.514618 127.480644,99.561363 127.566483,99.514618 
z"/>
<path fill="#0A0A0A" opacity="1.000000" stroke="none" 
	d="
M89.050629,95.119415 
	C90.135452,94.082207 91.220276,93.045006 92.651054,92.075470 
	C95.713799,92.993332 98.423027,93.868919 101.151016,94.681480 
	C102.273132,95.015701 103.435677,95.214241 104.579834,95.474503 
	C104.158691,96.977463 104.147011,99.398315 103.236595,99.804436 
	C100.880241,100.855553 98.127686,101.018440 95.522446,101.242249 
	C95.649597,100.494797 95.826843,100.045753 95.882385,99.582138 
	C95.890511,99.514366 95.318726,99.377106 95.015266,99.272003 
	C95.010330,99.848106 95.005402,100.424202 95.000473,101.000305 
	C93.411972,101.570160 91.823471,102.140015 89.689903,102.894257 
	C88.109344,103.019180 87.073860,102.959709 86.000748,102.671936 
	C85.963135,102.443642 85.816887,102.004616 85.816887,102.004616 
	C86.233955,100.617493 86.651024,99.230377 87.577271,97.445068 
	C90.257553,97.046883 92.428665,97.046883 94.599777,97.046883 
	C94.598831,96.873543 94.597885,96.700211 94.596947,96.526871 
	C92.748177,96.057716 90.899406,95.588562 89.050629,95.119415 
z"/>
<path fill="#F6F6F6" opacity="1.000000" stroke="none" 
	d="
M85.448616,102.020264 
	C85.816887,102.004616 85.963135,102.443642 85.984901,102.899826 
	C86.006668,103.356018 85.994858,103.812759 85.994858,103.812759 
	C85.591637,106.804619 85.188416,109.796471 84.470856,112.924942 
	C80.804260,109.366203 81.155342,105.176186 85.448616,102.020264 
z"/>
<path fill="#F5F5F5" opacity="1.000000" stroke="none" 
	d="
M93.001526,82.986343 
	C94.880798,80.766708 96.219513,81.077187 97.986382,84.493546 
	C96.891281,85.509117 95.785416,86.171097 94.341049,86.834999 
	C94.002556,86.836922 93.993568,86.407860 94.125053,85.928078 
	C94.653580,84.820602 95.050621,84.192909 95.654015,83.238983 
	C94.500786,83.129143 93.751160,83.057739 93.001526,82.986343 
z"/>
<path fill="#333333" opacity="1.000000" stroke="none" 
	d="
M134.800568,129.742477 
	C133.607483,130.340530 132.215759,130.678009 130.484863,131.009521 
	C130.342133,130.197342 130.538589,129.391113 130.861450,128.293335 
	C132.192535,128.495163 133.397217,128.988541 134.800568,129.742477 
z"/>
<path fill="#F6F6F6" opacity="1.000000" stroke="none" 
	d="
M85.384216,115.895645 
	C85.004349,115.444580 85.004234,115.079231 85.004105,114.439880 
	C86.480339,114.165878 87.956581,114.165878 90.378250,114.165878 
	C88.298325,114.984230 87.031151,115.482803 85.384216,115.895645 
z"/>
<path fill="#F3F3F3" opacity="1.000000" stroke="none" 
	d="
M111.394577,79.074112 
	C111.206612,78.551514 111.363861,77.969467 111.760727,77.193642 
	C111.913498,77.671455 111.826645,78.343063 111.394577,79.074112 
z"/>
<path fill="#F1F1F1" opacity="1.000000" stroke="none" 
	d="
M86.344940,103.891891 
	C85.994858,103.812759 86.006668,103.356018 86.022522,103.128128 
	C87.073860,102.959709 88.109344,103.019180 89.529686,103.137375 
	C88.841362,103.454414 87.768188,103.712723 86.344940,103.891891 
z"/>
<path fill="#F5F5F5" opacity="1.000000" stroke="none" 
	d="
M92.310310,88.901413 
	C92.175720,88.533340 92.399879,88.306725 92.907394,88.043945 
	C93.336723,88.139290 93.545456,88.332886 93.754181,88.526474 
	C93.371552,88.677917 92.988930,88.829353 92.310310,88.901413 
z"/>
<path fill="#0A0A0A" opacity="1.000000" stroke="none" 
	d="
M95.522881,104.537132 
	C95.479408,104.560753 95.566353,104.513512 95.522881,104.537132 
z"/>
<path fill="#4F4F4F" opacity="1.000000" stroke="none" 
	d="
M67.852859,108.008942 
	C69.194016,110.132339 70.146523,112.067368 71.361115,114.384949 
	C69.299713,115.340103 66.976242,115.912712 64.986237,116.403137 
	C65.510406,117.103577 66.199928,118.024956 66.529221,118.985123 
	C65.449905,119.086830 64.730804,119.149757 63.678719,119.159142 
	C62.897449,119.070442 62.449173,119.035278 61.555260,118.999451 
	C58.735989,119.052376 56.362350,119.105957 53.988716,119.159546 
	C51.563644,119.717232 49.138573,120.274910 46.089630,120.922363 
	C45.287346,121.021606 45.108925,121.031082 44.930504,121.040558 
	C44.930504,119.556587 44.930504,118.072617 44.930504,116.287285 
	C46.280029,116.098671 47.865669,115.877052 50.146801,115.558228 
	C48.882763,114.390129 48.043316,113.614403 47.211136,112.845398 
	C50.547642,107.937332 59.828236,105.663948 67.852859,108.008942 
M68.683350,113.823303 
	C68.744728,113.459122 68.806107,113.094933 68.867477,112.730759 
	C68.493408,112.768387 68.119339,112.806023 67.745270,112.843651 
	C67.792168,113.181351 67.839073,113.519043 68.683350,113.823303 
z"/>
<path fill="#0E0E0E" opacity="1.000000" stroke="none" 
	d="
M53.943588,119.490501 
	C56.362350,119.105957 58.735989,119.052376 61.487637,119.259277 
	C62.622883,119.918785 63.380119,120.317795 64.378220,120.879181 
	C64.729889,121.150795 64.886772,121.243149 64.935204,121.375252 
	C64.967133,121.462372 64.875816,121.665161 64.783920,121.716675 
	C63.313919,122.540718 61.834915,123.348709 60.263805,124.541534 
	C60.781628,125.610695 61.393612,126.298683 62.381424,126.984962 
	C63.508663,127.002846 64.260071,127.022430 65.011482,127.042023 
	C66.571548,128.045807 68.131615,129.049606 69.691734,130.053314 
	C67.368614,136.411835 65.236992,137.974854 58.501060,137.653473 
	C58.770603,136.873734 59.429043,136.482208 60.008682,135.996628 
	C60.886368,135.261383 61.709202,134.460678 62.555344,133.687790 
	C61.333557,133.143143 60.104828,132.123749 58.891262,132.141479 
	C55.012104,132.198181 54.773193,135.019638 54.997864,137.997559 
	C52.298409,137.997772 49.598957,137.997971 46.449570,137.998260 
	C46.170055,137.262985 46.093464,136.140686 46.548061,135.850479 
	C53.013233,131.723145 53.069309,131.615662 49.439735,125.583832 
	C50.923298,123.660973 52.410881,121.741211 53.943588,119.490501 
z"/>
<path fill="#0E0E0E" opacity="1.000000" stroke="none" 
	d="
M43.999847,123.000000 
	C44.256104,125.727005 44.512360,128.454010 44.791042,131.419662 
	C41.194790,131.174026 37.967976,130.953644 33.467022,130.646225 
	C35.611233,127.562782 37.279877,125.163223 39.076511,122.579613 
	C35.971340,121.605698 32.666199,120.647369 31.369673,125.003876 
	C27.999317,124.665825 24.815409,123.592674 22.015636,124.223747 
	C16.317537,125.508118 16.755375,122.139252 17.123280,118.708939 
	C17.289785,117.156448 18.099590,115.672951 18.617552,114.158157 
	C19.189350,113.991188 19.761148,113.824219 20.332947,113.657249 
	C21.573462,116.097305 22.813974,118.537354 24.086002,121.039391 
	C26.054781,115.581245 31.191362,120.165627 34.396370,118.470032 
	C39.991261,115.510086 40.756451,120.664833 43.666157,122.932114 
	C44.000000,123.000000 43.999847,123.000000 43.999847,123.000000 
z"/>
<path fill="#0E0E0E" opacity="1.000000" stroke="none" 
	d="
M27.992279,131.187103 
	C26.965990,132.756363 25.923695,133.995407 24.541250,135.372040 
	C23.131659,134.185760 22.062218,132.861908 20.992777,131.538071 
	C20.261265,131.493866 19.529755,131.449677 18.798244,131.405487 
	C20.757858,129.524292 22.717472,127.643105 25.339874,125.125648 
	C26.525497,127.703072 27.250885,129.279984 27.992279,131.187103 
z"/>
<path fill="#ECECEC" opacity="1.000000" stroke="none" 
	d="
M61.999428,82.001976 
	C63.633148,84.723938 65.266869,87.445908 66.952744,90.496063 
	C63.479248,90.035477 59.092823,91.250793 57.107452,86.318970 
	C57.658981,84.905502 58.320286,83.793411 59.365898,82.340027 
	C60.499939,81.999817 61.249683,82.000900 61.999428,82.001976 
z"/>
<path fill="#0E0E0E" opacity="1.000000" stroke="none" 
	d="
M19.915234,104.042236 
	C21.274967,103.956673 22.782902,103.641769 23.209093,104.181320 
	C23.697561,104.799721 23.573391,106.382713 23.099247,107.180435 
	C22.121084,108.826141 20.733789,110.228676 18.810291,112.599686 
	C17.723881,110.070457 16.917719,108.193665 15.976831,106.003227 
	C17.376284,105.300217 18.480888,104.745316 19.915234,104.042236 
z"/>
<path fill="#0E0E0E" opacity="1.000000" stroke="none" 
	d="
M15.730173,134.870483 
	C16.575972,135.065918 17.157677,135.467834 17.739384,135.869766 
	C16.567583,137.225021 15.395782,138.580276 14.223980,139.935532 
	C13.798350,139.616364 13.372721,139.297180 12.947091,138.977997 
	C13.786755,137.677658 14.626418,136.377304 15.730173,134.870483 
z"/>
<path fill="#ECECEC" opacity="1.000000" stroke="none" 
	d="
M68.546837,91.861008 
	C69.906876,92.656128 70.894928,93.498734 71.941376,94.674805 
	C69.737923,94.445648 67.476059,93.883034 65.214195,93.320412 
	C65.245613,92.992188 65.277023,92.663963 65.308441,92.335739 
	C66.263908,92.193321 67.219383,92.050911 68.546837,91.861008 
z"/>
<path fill="#0B0B0B" opacity="1.000000" stroke="none" 
	d="
M41.353218,141.036942 
	C41.173885,140.377289 41.325897,139.709167 41.737129,139.018097 
	C42.600391,139.245514 43.204441,139.495850 43.991302,140.036499 
	C43.344269,140.560699 42.514420,140.794586 41.353218,141.036942 
z"/>
<path fill="#ECECEC" opacity="1.000000" stroke="none" 
	d="
M72.582680,101.182205 
	C73.567192,101.482620 74.251678,101.980812 74.958511,102.765739 
	C74.221603,103.024597 73.462334,102.996704 72.345680,102.667580 
	C71.988289,102.366348 72.014404,102.046745 72.014404,102.046745 
	C72.103821,101.824486 72.193237,101.602226 72.582680,101.182205 
z"/>
<path fill="#0E0E0E" opacity="1.000000" stroke="none" 
	d="
M44.705772,121.214691 
	C45.108925,121.031082 45.287346,121.021606 45.732445,121.038681 
	C45.540092,121.678886 45.081055,122.292557 44.310928,122.953110 
	C43.999847,123.000000 44.000000,123.000000 44.000076,123.000000 
	C44.160450,122.462936 44.320747,121.925880 44.705772,121.214691 
z"/>
<path fill="#0E0E0E" opacity="1.000000" stroke="none" 
	d="
M39.044670,106.439362 
	C39.267628,106.806671 39.265240,107.171455 39.236576,107.534149 
	C39.235779,107.544189 38.953140,107.531952 38.801926,107.530098 
	C38.806511,107.165581 38.811092,106.801056 39.044670,106.439362 
z"/>
<path fill="#0E0E0E" opacity="1.000000" stroke="none" 
	d="
M46.953873,132.627853 
	C47.245369,132.427490 47.654133,132.397491 48.062893,132.367493 
	C47.732307,132.511063 47.401722,132.654633 46.953873,132.627853 
z"/>
<path fill="#ECECEC" opacity="1.000000" stroke="none" 
	d="
M73.642044,104.089706 
	C74.004570,104.162231 74.015450,104.535454 74.021683,104.722046 
	C73.138954,104.908630 72.250000,104.908630 71.361046,104.908630 
	C71.346947,104.712563 71.332848,104.516495 71.318748,104.320419 
	C71.972336,104.219337 72.625931,104.118256 73.642044,104.089706 
z"/>
<path fill="#F1F1F1" opacity="1.000000" stroke="none" 
	d="
M71.807861,102.048981 
	C72.014404,102.046745 71.988289,102.366348 71.992172,102.526642 
	C71.784691,102.586235 71.573334,102.485535 71.361969,102.384834 
	C71.441750,102.273628 71.521538,102.162430 71.807861,102.048981 
z"/>
<path fill="#0E0E0E" opacity="1.000000" stroke="none" 
	d="
M38.462841,115.522354 
	C38.439346,115.479141 38.486336,115.565559 38.462841,115.522354 
z"/>
<path fill="#ECECEC" opacity="1.000000" stroke="none" 
	d="
M66.889450,118.946335 
	C66.199928,118.024956 65.510406,117.103577 64.986237,116.403137 
	C66.976242,115.912712 69.299713,115.340103 71.723816,114.417633 
	C75.142792,112.378471 78.113472,113.276604 80.967941,115.587456 
	C79.979202,117.082031 79.120102,118.498047 77.891533,119.423660 
	C76.434830,120.521172 74.659874,121.196281 72.266556,122.050858 
	C70.674812,122.647125 69.839355,123.247002 69.003899,123.846878 
	C68.577087,123.919136 68.150276,123.991402 67.419739,123.760101 
	C67.040489,121.953133 66.964966,120.449738 66.889450,118.946335 
z"/>
<path fill="#0E0E0E" opacity="1.000000" stroke="none" 
	d="
M81.998695,136.601990 
	C80.290009,136.469986 78.367966,136.255325 76.945007,135.298477 
	C76.005295,134.666565 75.388954,132.972229 75.376129,131.745743 
	C75.367432,130.913254 76.809158,129.280960 77.334251,129.383179 
	C78.612152,129.631897 80.162071,130.420151 80.810226,131.476974 
	C81.620621,132.798309 81.637794,134.606140 81.998695,136.601990 
z"/>
<path fill="#0C0C0C" opacity="1.000000" stroke="none" 
	d="
M55.373253,137.998352 
	C54.773193,135.019638 55.012104,132.198181 58.891262,132.141479 
	C60.104828,132.123749 61.333557,133.143143 62.555344,133.687790 
	C61.709202,134.460678 60.886368,135.261383 60.008682,135.996628 
	C59.429043,136.482208 58.770603,136.873734 58.074135,137.653381 
	C57.250099,137.999313 56.499371,137.999222 55.373253,137.998352 
z"/>
<path fill="#F1F1F1" opacity="1.000000" stroke="none" 
	d="
M66.529221,118.985123 
	C66.964966,120.449738 67.040489,121.953133 67.100052,123.820358 
	C69.339790,127.476105 65.246483,125.160568 65.080490,126.708313 
	C64.260071,127.022430 63.508663,127.002846 62.364513,126.691071 
	C63.983055,123.814926 60.308678,125.329880 60.357964,124.160362 
	C61.834915,123.348709 63.313919,122.540718 64.783920,121.716675 
	C64.875816,121.665161 64.967133,121.462372 64.935204,121.375252 
	C64.886772,121.243149 64.729889,121.150795 64.348694,120.502991 
	C64.056107,119.713844 64.033913,119.463264 64.011711,119.212677 
	C64.730804,119.149757 65.449905,119.086830 66.529221,118.985123 
z"/>
<path fill="#F1F1F1" opacity="1.000000" stroke="none" 
	d="
M69.328705,123.886322 
	C69.839355,123.247002 70.674812,122.647125 71.867233,122.064705 
	C71.367310,122.696693 70.510414,123.311234 69.328705,123.886322 
z"/>
<path fill="#0E0E0E" opacity="1.000000" stroke="none" 
	d="
M85.999908,121.999847 
	C85.705299,122.492226 85.410774,122.984756 85.116249,123.477287 
	C84.916092,123.305397 84.715942,123.133507 84.515785,122.961617 
	C84.828125,122.667274 85.140465,122.372925 85.726555,122.039375 
	C86.000305,122.000168 86.000000,122.000000 85.999908,121.999847 
z"/>
<path fill="#0E0E0E" opacity="1.000000" stroke="none" 
	d="
M78.359718,140.432373 
	C77.944031,140.324051 77.692230,140.059479 77.440430,139.794922 
	C77.550018,139.690857 77.749374,139.490265 77.756241,139.496643 
	C78.022972,139.744705 78.272133,140.011673 78.359718,140.432373 
z"/>
<path fill="#0E0E0E" opacity="1.000000" stroke="none" 
	d="
M138.938751,59.610229 
	C134.472443,58.743179 130.836853,56.970947 129.311310,51.859600 
	C128.713074,49.855225 125.599106,48.612183 123.654022,46.994568 
	C122.779541,46.267319 121.961899,45.471741 121.118462,44.707169 
	C122.121933,43.817566 123.008415,42.416737 124.155396,42.154259 
	C126.029243,41.725441 128.072830,42.038361 129.973755,42.038361 
	C130.961182,47.204544 134.608429,50.548656 138.772522,50.013973 
	C139.103882,53.078644 139.049133,56.145103 138.938751,59.610229 
z"/>
<path fill="#F5F5F5" opacity="1.000000" stroke="none" 
	d="
M62.204811,81.768768 
	C61.249683,82.000900 60.499939,81.999817 59.375328,81.997833 
	C59.000458,81.996918 59.000000,82.000000 58.997276,81.667603 
	C58.994076,80.892273 58.993603,80.449341 58.993126,80.006409 
	C60.511600,78.616104 62.099678,77.292877 63.525551,75.813324 
	C64.581421,74.717697 65.426285,73.418724 66.365150,72.210335 
	C66.842896,72.581741 67.787132,73.144272 67.725502,73.294708 
	C67.169510,74.651863 66.437218,75.936798 66.160896,76.467087 
	C67.970039,79.021423 69.615265,81.344322 71.260483,83.667221 
	C70.896515,84.112335 70.532555,84.557449 70.168587,85.002563 
	C67.582458,83.846901 64.996323,82.691231 62.204811,81.768768 
z"/>
<path fill="#F5F5F5" opacity="1.000000" stroke="none" 
	d="
M56.687111,77.406219 
	C56.702442,73.972069 57.819622,72.031006 62.193657,74.917953 
	C60.436550,75.834167 58.679443,76.750381 56.687111,77.406219 
z"/>
<path fill="#ECECEC" opacity="1.000000" stroke="none" 
	d="
M86.928360,66.454544 
	C86.669952,67.816536 86.296051,68.863831 85.922150,69.911133 
	C85.012779,69.179367 84.103409,68.447601 83.194038,67.715836 
	C84.400314,67.190506 85.606598,66.665176 86.928360,66.454544 
z"/>
<path fill="#ECECEC" opacity="1.000000" stroke="none" 
	d="
M88.840477,94.859055 
	C90.899406,95.588562 92.748177,96.057716 94.596947,96.526871 
	C94.597885,96.700211 94.598831,96.873543 94.599777,97.046883 
	C92.428665,97.046883 90.257553,97.046883 87.660919,97.076508 
	C86.983971,96.300804 86.732552,95.495483 86.481133,94.690155 
	C87.197525,94.659668 87.913925,94.629181 88.840477,94.859055 
z"/>
<path fill="#F5F5F5" opacity="1.000000" stroke="none" 
	d="
M101.999565,77.991150 
	C101.809494,77.266563 101.619423,76.541985 101.429352,75.817398 
	C102.453262,75.767509 103.477173,75.717621 104.501083,75.667725 
	C104.215172,76.409203 103.929260,77.150673 103.066483,77.947456 
	C102.489624,78.002762 101.999565,77.991150 101.999565,77.991150 
z"/>
<path fill="#ECECEC" opacity="1.000000" stroke="none" 
	d="
M90.791397,78.235916 
	C91.023529,78.775719 90.972557,79.253807 90.921585,79.731888 
	C90.497238,79.622101 90.072884,79.512314 89.648529,79.402519 
	C89.935127,78.993080 90.221718,78.583641 90.791397,78.235916 
z"/>
<path fill="#ECECEC" opacity="1.000000" stroke="none" 
	d="
M93.004120,83.321686 
	C93.751160,83.057739 94.500786,83.129143 95.654015,83.238983 
	C95.050621,84.192909 94.653580,84.820602 94.121346,85.713531 
	C93.659676,85.204857 93.333199,84.430939 93.004120,83.321686 
z"/>
<path fill="#ECECEC" opacity="1.000000" stroke="none" 
	d="
M84.000610,90.000610 
	C84.601364,89.415901 85.194778,88.822701 85.827797,88.275314 
	C85.855125,88.251678 86.247253,88.649910 86.469437,88.851624 
	C85.869118,89.229195 85.268806,89.606773 84.334244,89.992172 
	C84.000000,90.000000 84.000610,90.000610 84.000610,90.000610 
z"/>
<path fill="#ECECEC" opacity="1.000000" stroke="none" 
	d="
M83.516159,98.357964 
	C83.037430,98.161278 82.750359,97.781609 82.463295,97.401932 
	C82.828552,97.224022 83.193802,97.046112 83.559052,96.868210 
	C83.608643,97.303795 83.658234,97.739388 83.516159,98.357964 
z"/>
<path fill="#ECECEC" opacity="1.000000" stroke="none" 
	d="
M58.687996,80.007408 
	C58.993603,80.449341 58.994076,80.892273 58.998833,81.667442 
	C58.261787,81.550934 57.520458,81.102188 56.779129,80.653442 
	C57.313705,80.438431 57.848282,80.223419 58.687996,80.007408 
z"/>
<path fill="#ECECEC" opacity="1.000000" stroke="none" 
	d="
M81.433685,63.637100 
	C81.325073,64.054413 81.059738,64.307259 80.794395,64.560097 
	C80.690109,64.450035 80.488907,64.250023 80.495522,64.242897 
	C80.744095,63.975090 81.011826,63.725060 81.433685,63.637100 
z"/>
<path fill="#ECECEC" opacity="1.000000" stroke="none" 
	d="
M83.999695,89.999695 
	C83.704865,90.492630 83.410355,90.985878 83.115845,91.479126 
	C82.915352,91.307106 82.714859,91.135078 82.514359,90.963051 
	C82.827080,90.668236 83.139801,90.373413 83.726562,90.039604 
	C84.000610,90.000610 84.000000,90.000000 83.999695,89.999695 
z"/>
<path fill="#ECECEC" opacity="1.000000" stroke="none" 
	d="
M98.142502,77.706467 
	C98.270477,77.303879 98.438919,77.107872 98.607353,76.911873 
	C98.686913,77.198669 98.766464,77.485466 98.846024,77.772255 
	C98.625008,77.819183 98.403984,77.866112 98.142502,77.706467 
z"/>
<path fill="#ECECEC" opacity="1.000000" stroke="none" 
	d="
M77.682510,101.974350 
	C77.660896,102.425438 77.490059,102.732254 77.319229,103.039070 
	C77.390587,102.636070 77.461937,102.233078 77.682510,101.974350 
z"/>
<path fill="#ECECEC" opacity="1.000000" stroke="none" 
	d="
M75.758743,108.587769 
	C75.814011,108.403084 75.946976,108.340927 76.079941,108.278763 
	C75.998772,108.422600 75.917610,108.566452 75.758743,108.587769 
z"/>
<path fill="#ECECEC" opacity="1.000000" stroke="none" 
	d="
M100.478012,79.460930 
	C100.522614,79.436516 100.433403,79.485344 100.478012,79.460930 
z"/>
<path fill="#ECECEC" opacity="1.000000" stroke="none" 
	d="
M53.477211,75.463692 
	C53.521397,75.439880 53.433029,75.487503 53.477211,75.463692 
z"/>
<path fill="#F5F5F5" opacity="1.000000" stroke="none" 
	d="
M61.476761,70.463013 
	C61.520748,70.438988 61.432774,70.487038 61.476761,70.463013 
z"/>
<path fill="#F6F6F6" opacity="1.000000" stroke="none" 
	d="
M79.523712,105.539108 
	C79.479019,105.563728 79.568398,105.514496 79.523712,105.539108 
z"/>
<path fill="#ECECEC" opacity="1.000000" stroke="none" 
	d="
M75.523262,110.538338 
	C75.478523,110.562798 75.568001,110.513878 75.523262,110.538338 
z"/>
<path fill="#ECECEC" opacity="1.000000" stroke="none" 
	d="
M102.089203,78.145691 
	C101.999565,77.991150 102.489624,78.002762 102.734283,78.011116 
	C102.712242,78.113060 102.445534,78.206650 102.089203,78.145691 
z"/>
<path fill="#0E0E0E" opacity="1.000000" stroke="none" 
	d="
M130.128571,59.868370 
	C128.090607,63.018818 125.875809,62.705700 121.524681,58.813675 
	C124.587914,56.686153 127.313759,57.290123 130.128571,59.868370 
z"/>
<path fill="#F5F5F5" opacity="1.000000" stroke="none" 
	d="
M62.998123,56.998245 
	C64.111732,57.106125 65.225334,57.214005 66.338943,57.321888 
	C66.475754,57.712406 66.612572,58.102928 66.749382,58.493450 
	C64.840530,59.272675 62.931675,60.051899 61.022823,60.831127 
	C60.661552,59.772560 60.300282,58.713993 60.147148,57.183083 
	C60.572941,55.808220 60.790596,54.905701 61.008255,54.003185 
	C61.008255,54.003185 61.503136,54.001415 61.754601,54.336029 
	C62.336754,55.446507 62.667439,56.222374 62.998123,56.998245 
z"/>
<path fill="#E8E8E8" opacity="1.000000" stroke="none" 
	d="
M51.987232,54.984055 
	C51.987232,54.984055 51.487999,54.992638 51.238235,54.996777 
	C50.827034,53.799065 50.665596,52.597210 50.751499,51.192326 
	C53.054653,51.109062 55.110470,51.228832 57.166283,51.348602 
	C57.116367,51.845131 57.066448,52.341660 57.016533,52.838184 
	C56.194195,52.644554 55.371861,52.450920 53.936142,52.184372 
	C52.877586,53.068989 52.432411,54.026524 51.987232,54.984055 
z"/>
<path fill="#F1F1F1" opacity="1.000000" stroke="none" 
	d="
M60.668293,54.005867 
	C60.790596,54.905701 60.572941,55.808220 60.177795,56.855968 
	C59.222099,56.527287 58.443890,56.053375 57.665684,55.579460 
	C58.553234,55.055824 59.440784,54.532188 60.668293,54.005867 
z"/>
<path fill="#F1F1F1" opacity="1.000000" stroke="none" 
	d="
M57.218338,60.795609 
	C56.043766,60.552708 55.087395,60.105965 54.312950,59.322571 
	C54.494877,58.985920 54.972443,58.990406 54.972443,58.990406 
	C55.793808,59.524189 56.615173,60.057976 57.218338,60.795609 
z"/>
<path fill="#E8E8E8" opacity="1.000000" stroke="none" 
	d="
M55.000805,58.701061 
	C54.972443,58.990406 54.494877,58.985920 54.256325,58.981403 
	C53.522892,58.400162 53.028011,57.823437 52.273247,57.118847 
	C52.013355,56.990986 52.009708,56.510277 52.341980,56.263107 
	C53.118362,56.015598 53.562481,56.015263 54.006596,56.014923 
	C54.347454,56.813854 54.688309,57.612785 55.000805,58.701061 
z"/>
<path fill="#F5F5F5" opacity="1.000000" stroke="none" 
	d="
M53.900703,55.737656 
	C53.562481,56.015263 53.118362,56.015598 52.341476,56.022743 
	C52.004955,55.855370 52.001209,55.681187 51.992348,55.245529 
	C52.432411,54.026524 52.877586,53.068989 53.662151,52.050957 
	C53.932632,53.147099 53.863724,54.303745 53.900703,55.737656 
z"/>
<path fill="#F1F1F1" opacity="1.000000" stroke="none" 
	d="
M62.995934,56.662560 
	C62.667439,56.222374 62.336754,55.446507 62.002045,54.335125 
	C62.329929,54.775364 62.661839,55.551121 62.995934,56.662560 
z"/>
<path fill="#0A0A0A" opacity="1.000000" stroke="none" 
	d="
M61.968864,49.011055 
	C61.598156,49.430794 60.987064,49.646027 60.375969,49.861256 
	C60.509686,49.516262 60.643398,49.171272 61.000965,48.626175 
	C61.392700,48.552891 61.560585,48.679718 61.968864,49.011055 
z"/>
<path fill="#F1F1F1" opacity="1.000000" stroke="none" 
	d="
M64.523804,54.538185 
	C64.479874,54.562195 64.567726,54.514172 64.523804,54.538185 
z"/>
<path fill="#F1F1F1" opacity="1.000000" stroke="none" 
	d="
M79.213669,45.888550 
	C79.114990,45.691193 79.305779,45.433414 79.786636,45.115959 
	C79.883972,45.312641 79.692787,45.569927 79.213669,45.888550 
z"/>
<path fill="#F1F1F1" opacity="1.000000" stroke="none" 
	d="
M89.849930,45.088692 
	C90.006790,45.161106 90.008598,45.328510 90.011734,45.747032 
	C89.906990,45.726658 89.800934,45.455173 89.849930,45.088692 
z"/>
<path fill="#3A3A3A" opacity="1.000000" stroke="none" 
	d="
M127.523560,99.537994 
	C127.480644,99.561363 127.566483,99.514618 127.523560,99.537994 
z"/>
<path fill="#0E0E0E" opacity="1.000000" stroke="none" 
	d="
M95.000237,101.000153 
	C95.005402,100.424202 95.010330,99.848106 95.015266,99.272003 
	C95.318726,99.377106 95.890511,99.514366 95.882385,99.582138 
	C95.826843,100.045753 95.649597,100.494797 95.255630,100.974113 
	C94.999695,100.999695 95.000000,101.000000 95.000237,101.000153 
z"/>
<path fill="#ECECEC" opacity="1.000000" stroke="none" 
	d="
M63.678719,119.159134 
	C64.033913,119.463264 64.056107,119.713844 64.107819,120.340622 
	C63.380119,120.317795 62.622883,119.918785 61.933273,119.259941 
	C62.449173,119.035278 62.897449,119.070442 63.678719,119.159134 
z"/>
<path fill="#F1F1F1" opacity="1.000000" stroke="none" 
	d="
M68.284660,113.840027 
	C67.839073,113.519043 67.792168,113.181351 67.745270,112.843658 
	C68.119339,112.806023 68.493408,112.768387 68.867477,112.730759 
	C68.806107,113.094933 68.744728,113.459122 68.284660,113.840027 
z"/>
<path fill="#0B0B0B" opacity="1.000000" stroke="none" 
	d="
M60.263805,124.541534 
	C60.308678,125.329880 63.983055,123.814926 61.988686,126.692780 
	C61.393612,126.298683 60.781628,125.610695 60.263805,124.541534 
z"/>
</svg>